<svg width="126" height="126" viewBox="0 0 126 126" fill="none" xmlns="http://www.w3.org/2000/svg">
<rect opacity="0.8" width="126" height="126" rx="20" fill="#3C0E2C"/>
<path d="M36.1095 61.8641L37.4125 61.8664L32.0878 50.1275L30.8683 50.1253L25.5016 61.8449L26.7879 61.8473L28.1968 58.7164L34.7119 58.7281L36.1095 61.8641ZM28.6496 57.7118L31.4674 51.4166L34.2626 57.722L28.6496 57.7118Z" fill="#FFC0E9"/>
<path d="M48.1674 61.8859L49.6374 61.8885L44.2364 55.4611L49.3077 50.1586L47.8877 50.156L41.0091 57.2315L41.0218 50.1436L39.7856 50.1414L39.7646 61.8707L41.0008 61.8729L41.0063 58.7898L43.3995 56.3645L48.1674 61.8859Z" fill="#FFC0E9"/>
<path d="M53.2968 60.8227L53.3046 56.4661L59.352 56.477L59.3539 55.4214L53.3065 55.4105L53.314 51.2382H59.672L60.0983 50.178L52.0797 50.1636L52.0587 61.8929L59.88 61.9078L60.3298 60.8354L53.2968 60.8227Z" fill="#FFC0E9"/>
<path d="M68.362 62.0229C71.3523 62.0283 73.1596 60.2889 73.1656 56.9209L73.1777 50.2017L71.9749 50.1995L71.9629 56.8685C71.9579 59.65 70.6526 60.9211 68.364 60.917C66.0921 60.9129 64.7913 59.637 64.7963 56.8555L64.8083 50.1865L63.5721 50.1843L63.56 56.9035C63.554 60.2715 65.3718 62.0175 68.362 62.0229Z" fill="#FFC0E9"/>
<path d="M81.6973 50.217L77.3205 50.2091L77.2994 61.9385L78.5356 61.9407L78.5423 58.2376L81.6829 58.2433C84.6565 58.2486 86.4633 56.7438 86.4678 54.2472C86.4723 51.7337 84.6709 50.2224 81.6973 50.217ZM81.6514 57.154L78.5442 57.1484L78.5548 51.2838L81.662 51.2894C84.0007 51.2936 85.235 52.3682 85.2316 54.2449C85.2283 56.0881 83.9902 57.1583 81.6514 57.154Z" fill="#FFC0E9"/>
<path d="M34.559 75.9172L35.7951 75.9194L35.8162 64.1901L34.58 64.1879L34.559 75.9172Z" fill="#FFC0E9"/>
<path d="M42.6236 75.9318L43.8598 75.934L43.8789 65.2771L47.9884 65.2845L48.3272 64.2121L38.872 64.195L38.5332 65.2674L42.6427 65.2748L42.6236 75.9318Z" fill="#FFC0E9"/>
<path d="M55.6111 76.0558C57.3317 76.0589 58.8697 75.4752 59.9074 74.3376L59.1237 73.5487C58.1697 74.5356 56.9996 74.9524 55.6632 74.9499C52.84 74.9448 50.7221 72.8632 50.7271 70.0817C50.7321 67.3002 52.8574 65.2262 55.6806 65.2313C57.017 65.2338 58.1857 65.6548 59.1361 66.6283L59.9227 65.8422C58.889 64.7009 57.3531 64.1285 55.6492 64.1254C52.1243 64.119 49.5138 66.6445 49.5076 70.0795C49.5014 73.5145 52.1029 76.0494 55.6111 76.0558Z" fill="#FFC0E9"/>
<path d="M71.8657 64.2552L71.8564 69.4831L64.5394 69.4699L64.5488 64.242L63.3126 64.2398L63.2915 75.9691L64.5277 75.9713L64.5374 70.5591L71.8544 70.5723L71.8447 75.9845L73.0642 75.9867L73.0852 64.2574L71.8657 64.2552Z" fill="#FFC0E9"/>
<path d="M78.8708 74.9248L78.8786 70.5682L84.926 70.5791L84.9279 69.5235L78.8805 69.5126L78.888 65.3403L85.2316 65.3525L85.6723 64.2801L77.6538 64.2656L77.6327 75.995L85.464 76.0165L85.9038 74.9375L78.8708 74.9248Z" fill="#FFC0E9"/>
<path d="M98.1336 64.0432L98.1165 73.8202L90.5995 64.289L89.5805 64.2872L89.5594 76.0165L90.7956 76.3525L90.8127 66.5012L98.313 76.0323L99.3321 76.0342L99.3531 64.3048L98.1336 64.0432Z" fill="#FFC0E9"/>
<path d="M85.3627 86.3029C85.1195 86.3029 84.8934 86.2622 84.6844 86.1809C84.4786 86.0964 84.2993 85.9792 84.1465 85.829C83.9937 85.6789 83.8752 85.5037 83.791 85.3035C83.7068 85.1002 83.6647 84.8782 83.6647 84.6373C83.6647 84.3965 83.7068 84.176 83.791 83.9758C83.8752 83.7725 83.9937 83.5957 84.1465 83.4456C84.3024 83.2955 84.4833 83.1797 84.6891 83.0984C84.8949 83.014 85.1195 82.9717 85.3627 82.9717C85.5934 82.9717 85.8086 83.0093 86.0082 83.0844C86.2109 83.1594 86.3839 83.2736 86.5274 83.4268L86.3777 83.5817C86.2374 83.444 86.0815 83.3455 85.91 83.2861C85.7416 83.2235 85.5623 83.1923 85.372 83.1923C85.1631 83.1923 84.9682 83.2282 84.7873 83.3002C84.6096 83.3721 84.4537 83.4738 84.3196 83.6051C84.1886 83.7365 84.0857 83.8898 84.0109 84.0649C83.9392 84.2401 83.9033 84.4309 83.9033 84.6373C83.9033 84.8438 83.9392 85.0346 84.0109 85.2097C84.0857 85.3849 84.1886 85.5381 84.3196 85.6695C84.4537 85.8009 84.6096 85.9025 84.7873 85.9745C84.9682 86.0464 85.1631 86.0824 85.372 86.0824C85.5623 86.0824 85.7416 86.0527 85.91 85.9932C86.0815 85.9307 86.2374 85.829 86.3777 85.6883L86.5274 85.8431C86.3839 85.9964 86.2109 86.1121 86.0082 86.1903C85.8086 86.2654 85.5934 86.3029 85.3627 86.3029Z" fill="#FFC0E9"/>
<path d="M87.5603 86.2794V82.9952H88.7343C89.0087 82.9952 89.2442 83.039 89.4406 83.1266C89.6371 83.2142 89.7883 83.3408 89.8943 83.5066C90.0004 83.6693 90.0534 83.8679 90.0534 84.1025C90.0534 84.3308 90.0004 84.5278 89.8943 84.6936C89.7883 84.8563 89.6371 84.9829 89.4406 85.0736C89.2442 85.1612 89.0087 85.205 88.7343 85.205H87.6912L87.7988 85.0924V86.2794H87.5603ZM89.8335 86.2794L88.9822 85.0877H89.2535L90.1048 86.2794H89.8335ZM87.7988 85.1065L87.6912 84.9939H88.7343C89.0867 84.9939 89.3533 84.9157 89.5342 84.7593C89.7182 84.6029 89.8102 84.384 89.8102 84.1025C89.8102 83.8178 89.7182 83.5989 89.5342 83.4456C89.3533 83.2892 89.0867 83.211 88.7343 83.211H87.6912L87.7988 83.0937V85.1065Z" fill="#FFC0E9"/>
<path d="M90.6134 86.2794L92.1196 82.9952H92.3581L93.8643 86.2794H93.607L92.185 83.1453H92.288L90.8707 86.2794H90.6134ZM91.1654 85.3551L91.2449 85.1534H93.2047L93.2843 85.3551H91.1654Z" fill="#FFC0E9"/>
<path d="M94.903 84.6139H96.6758V84.8297H94.903V84.6139ZM94.9311 86.2794H94.6926V82.9952H96.8816V83.211H94.9311V86.2794Z" fill="#FFC0E9"/>
<path d="M98.5269 86.2794V83.211H97.3482V82.9952H99.9442V83.211H98.7655V86.2794H98.5269Z" fill="#FFC0E9"/>
<path d="M72.199 92C71.9557 92 71.7296 91.9593 71.5207 91.878C71.3149 91.7936 71.1356 91.6763 70.9828 91.5261C70.83 91.376 70.7115 91.2008 70.6273 91.0007C70.5431 90.7973 70.501 90.5753 70.501 90.3344C70.501 90.0936 70.5431 89.8731 70.6273 89.6729C70.7115 89.4696 70.83 89.2929 70.9828 89.1427C71.1387 88.9926 71.3196 88.8769 71.5254 88.7955C71.7312 88.7111 71.9557 88.6689 72.199 88.6689C72.4297 88.6689 72.6449 88.7064 72.8444 88.7815C73.0471 88.8565 73.2202 88.9707 73.3637 89.124L73.214 89.2788C73.0736 89.1412 72.9177 89.0426 72.7462 88.9832C72.5778 88.9207 72.3985 88.8894 72.2083 88.8894C71.9994 88.8894 71.8045 88.9254 71.6236 88.9973C71.4459 89.0692 71.29 89.1709 71.1559 89.3022C71.0249 89.4336 70.922 89.5869 70.8472 89.762C70.7754 89.9372 70.7396 90.128 70.7396 90.3344C70.7396 90.5409 70.7754 90.7317 70.8472 90.9068C70.922 91.082 71.0249 91.2352 71.1559 91.3666C71.29 91.498 71.4459 91.5996 71.6236 91.6716C71.8045 91.7435 71.9994 91.7795 72.2083 91.7795C72.3985 91.7795 72.5778 91.7498 72.7462 91.6903C72.9177 91.6278 73.0736 91.5261 73.214 91.3854L73.3637 91.5402C73.2202 91.6935 73.0471 91.8092 72.8444 91.8874C72.6449 91.9625 72.4297 92 72.199 92Z" fill="#FFC0E9"/>
<path d="M75.7173 92C75.474 92 75.2479 91.9593 75.039 91.878C74.8332 91.7936 74.6523 91.6763 74.4964 91.5261C74.3436 91.3729 74.2251 91.1962 74.1409 90.996C74.0567 90.7927 74.0146 90.5721 74.0146 90.3344C74.0146 90.0967 74.0567 89.8778 74.1409 89.6776C74.2251 89.4743 74.3436 89.2976 74.4964 89.1474C74.6523 88.9942 74.8332 88.8769 75.039 88.7955C75.2479 88.7111 75.474 88.6689 75.7173 88.6689C75.9605 88.6689 76.185 88.7111 76.3908 88.7955C76.5997 88.8769 76.7806 88.9926 76.9334 89.1427C77.0862 89.2929 77.2047 89.4696 77.2889 89.6729C77.3762 89.8731 77.4199 90.0936 77.4199 90.3344C77.4199 90.5753 77.3762 90.7973 77.2889 91.0007C77.2047 91.2008 77.0862 91.376 76.9334 91.5261C76.7806 91.6763 76.5997 91.7936 76.3908 91.878C76.185 91.9593 75.9605 92 75.7173 92ZM75.7173 91.7795C75.9262 91.7795 76.1195 91.7435 76.2973 91.6716C76.475 91.5996 76.6294 91.498 76.7603 91.3666C76.8913 91.2352 76.9927 91.082 77.0644 90.9068C77.1392 90.7317 77.1766 90.5409 77.1766 90.3344C77.1766 90.1249 77.1392 89.9341 77.0644 89.762C76.9927 89.5869 76.8913 89.4336 76.7603 89.3022C76.6294 89.1709 76.475 89.0692 76.2973 88.9973C76.1195 88.9254 75.9262 88.8894 75.7173 88.8894C75.5083 88.8894 75.315 88.9254 75.1372 88.9973C74.9595 89.0692 74.8036 89.1709 74.6695 89.3022C74.5385 89.4336 74.4356 89.5869 74.3608 89.762C74.289 89.9341 74.2532 90.1249 74.2532 90.3344C74.2532 90.5409 74.289 90.7317 74.3608 90.9068C74.4356 91.082 74.5385 91.2352 74.6695 91.3666C74.8036 91.498 74.9595 91.5996 75.1372 91.6716C75.315 91.7435 75.5083 91.7795 75.7173 91.7795Z" fill="#FFC0E9"/>
<path d="M79.3418 92C79.0986 92 78.8678 91.9593 78.6495 91.878C78.4344 91.7936 78.2675 91.6857 78.149 91.5543L78.2566 91.376C78.3689 91.4917 78.5217 91.5903 78.715 91.6716C78.9115 91.7498 79.1188 91.7889 79.3371 91.7889C79.5554 91.7889 79.7332 91.7607 79.8704 91.7044C80.0107 91.645 80.1136 91.5668 80.1791 91.4698C80.2477 91.3729 80.282 91.265 80.282 91.1461C80.282 91.0054 80.2446 90.8928 80.1697 90.8083C80.0949 90.7239 79.9967 90.6566 79.875 90.6066C79.7534 90.5565 79.6209 90.5143 79.4775 90.4799C79.334 90.4455 79.189 90.4095 79.0424 90.372C78.8959 90.3313 78.7618 90.2797 78.6402 90.2171C78.5186 90.1546 78.4203 90.0701 78.3455 89.9638C78.2738 89.8543 78.2379 89.7136 78.2379 89.5415C78.2379 89.3851 78.2785 89.2413 78.3595 89.1099C78.4406 88.9785 78.5669 88.8722 78.7384 88.7909C78.9099 88.7095 79.1298 88.6689 79.3979 88.6689C79.5788 88.6689 79.7565 88.6954 79.9312 88.7486C80.1089 88.8018 80.2602 88.8737 80.3849 88.9644L80.296 89.1568C80.1588 89.063 80.0107 88.9942 79.8517 88.9504C79.6957 88.9035 79.5445 88.88 79.3979 88.88C79.189 88.88 79.0159 88.9097 78.8787 88.9691C78.7415 89.0286 78.6402 89.1083 78.5747 89.2084C78.5092 89.3054 78.4765 89.4149 78.4765 89.5368C78.4765 89.6776 78.5123 89.7902 78.584 89.8746C78.6589 89.9591 78.7571 90.0263 78.8787 90.0764C79.0004 90.1264 79.1344 90.1687 79.281 90.2031C79.4276 90.2375 79.5726 90.275 79.716 90.3157C79.8595 90.3532 79.992 90.4032 80.1136 90.4658C80.2352 90.5284 80.3334 90.6128 80.4083 90.7192C80.4831 90.8255 80.5205 90.9631 80.5205 91.132C80.5205 91.2853 80.4784 91.4292 80.3942 91.5637C80.3101 91.695 80.1806 91.8014 80.006 91.8827C79.8345 91.9609 79.6131 92 79.3418 92Z" fill="#FFC0E9"/>
<path d="M81.5654 91.9765V88.6923H81.7665L83.2867 91.3244H83.1791L84.6946 88.6923H84.8911L84.8958 91.9765H84.6619L84.6572 89.0536H84.7227L83.2867 91.5402H83.1698L81.7291 89.0536H81.7993V91.9765H81.5654Z" fill="#FFC0E9"/>
<path d="M86.4817 90.2031H88.2545V90.4142H86.4817V90.2031ZM86.5098 91.7607H88.5305V91.9765H86.2712V88.6923H88.4603V88.9081H86.5098V91.7607Z" fill="#FFC0E9"/>
<path d="M90.2609 91.9765V88.9081H89.0821V88.6923H91.6782V88.9081H90.4994V91.9765H90.2609Z" fill="#FFC0E9"/>
<path d="M92.5036 91.9765V88.6923H92.7422V91.9765H92.5036Z" fill="#FFC0E9"/>
<path d="M95.5016 92C95.2583 92 95.0322 91.9593 94.8233 91.878C94.6175 91.7936 94.4382 91.6763 94.2854 91.5261C94.1326 91.376 94.0141 91.2008 93.9299 91.0007C93.8457 90.7973 93.8036 90.5753 93.8036 90.3344C93.8036 90.0936 93.8457 89.8731 93.9299 89.6729C94.0141 89.4696 94.1326 89.2929 94.2854 89.1427C94.4413 88.9926 94.6222 88.8769 94.828 88.7955C95.0338 88.7111 95.2583 88.6689 95.5016 88.6689C95.7323 88.6689 95.9475 88.7064 96.1471 88.7815C96.3497 88.8565 96.5228 88.9707 96.6663 89.124L96.5166 89.2788C96.3763 89.1412 96.2203 89.0426 96.0488 88.9832C95.8804 88.9207 95.7011 88.8894 95.5109 88.8894C95.302 88.8894 95.1071 88.9254 94.9262 88.9973C94.7485 89.0692 94.5926 89.1709 94.4585 89.3022C94.3275 89.4336 94.2246 89.5869 94.1498 89.762C94.078 89.9372 94.0422 90.128 94.0422 90.3344C94.0422 90.5409 94.078 90.7317 94.1498 90.9068C94.2246 91.082 94.3275 91.2352 94.4585 91.3666C94.5926 91.498 94.7485 91.5996 94.9262 91.6716C95.1071 91.7435 95.302 91.7795 95.5109 91.7795C95.7011 91.7795 95.8804 91.7498 96.0488 91.6903C96.2203 91.6278 96.3763 91.5261 96.5166 91.3854L96.6663 91.5402C96.5228 91.6935 96.3497 91.8092 96.1471 91.8874C95.9475 91.9625 95.7323 92 95.5016 92Z" fill="#FFC0E9"/>
<path d="M98.5461 92C98.3029 92 98.0721 91.9593 97.8538 91.878C97.6387 91.7936 97.4718 91.6857 97.3533 91.5543L97.4609 91.376C97.5732 91.4917 97.726 91.5903 97.9193 91.6716C98.1158 91.7498 98.3231 91.7889 98.5414 91.7889C98.7597 91.7889 98.9375 91.7607 99.0747 91.7044C99.215 91.645 99.3179 91.5668 99.3834 91.4698C99.452 91.3729 99.4863 91.265 99.4863 91.1461C99.4863 91.0054 99.4489 90.8928 99.374 90.8083C99.2992 90.7239 99.201 90.6566 99.0793 90.6066C98.9577 90.5565 98.8252 90.5143 98.6818 90.4799C98.5383 90.4455 98.3933 90.4095 98.2467 90.372C98.1002 90.3313 97.9661 90.2797 97.8445 90.2171C97.7229 90.1546 97.6246 90.0701 97.5498 89.9638C97.4781 89.8543 97.4422 89.7136 97.4422 89.5415C97.4422 89.3851 97.4827 89.2413 97.5638 89.1099C97.6449 88.9785 97.7712 88.8722 97.9427 88.7909C98.1142 88.7095 98.3341 88.6689 98.6022 88.6689C98.7831 88.6689 98.9608 88.6954 99.1355 88.7486C99.3132 88.8018 99.4645 88.8737 99.5892 88.9644L99.5003 89.1568C99.3631 89.063 99.215 88.9942 99.056 88.9504C98.9 88.9035 98.7488 88.88 98.6022 88.88C98.3933 88.88 98.2202 88.9097 98.083 88.9691C97.9458 89.0286 97.8445 89.1083 97.779 89.2084C97.7135 89.3054 97.6808 89.4149 97.6808 89.5368C97.6808 89.6776 97.7166 89.7902 97.7883 89.8746C97.8632 89.9591 97.9614 90.0263 98.083 90.0764C98.2046 90.1264 98.3387 90.1687 98.4853 90.2031C98.6318 90.2375 98.7769 90.275 98.9203 90.3157C99.0637 90.3532 99.1963 90.4032 99.3179 90.4658C99.4395 90.5284 99.5377 90.6128 99.6126 90.7192C99.6874 90.8255 99.7248 90.9631 99.7248 91.132C99.7248 91.2853 99.6827 91.4292 99.5985 91.5637C99.5143 91.695 99.3849 91.8014 99.2103 91.8827C99.0388 91.9609 98.8174 92 98.5461 92Z" fill="#FFC0E9"/>
<path d="M21.7839 77.5662H23.4544V90.3009H66.6675V91.9765H21.7839V77.5662Z" fill="#FFC0E9"/>
<path d="M21.7839 34H23.4544H113.329H115V91.9765H103.212V90.3009H113.329V35.6756L23.4544 35.6756V48.4104H21.7839V35.6756V34Z" fill="#FFC0E9"/>
<path d="M22.1468 50.1095L17.1029 58.7969L12.0401 50.0912L11.0211 50.0894L11 61.8187L12.1861 61.8209L12.2028 52.4877L16.7827 60.3379L17.3674 60.3389L21.7839 52.783V75.8906H23.4544V72.5278L25.5657 70.3882L30.3335 75.9096L31.8036 75.9122L26.4026 69.4848L31.4739 64.1823L30.0539 64.1797L23.4544 70.968V50.086H22.161L22.1474 50.1095L22.1468 50.1095Z" fill="#FFC0E9"/>
</svg>
