<svg width="126" height="126" viewBox="0 0 126 126" fill="none" xmlns="http://www.w3.org/2000/svg">
<rect opacity="0.8" width="126" height="126" rx="20" fill="#3C0E2C"/>
<path d="M75.0929 40.6198L66.0462 56.0537L56.9656 40.5874L55.1379 40.5841L55.1001 61.4222L57.2275 61.4261L57.2575 44.8449L65.472 58.7914L66.5207 58.7933L74.7858 44.7869L74.7556 61.4574L76.8829 61.4612L76.9206 40.6231L75.0929 40.6198Z" fill="#FFC0E9"/>
<path d="M89.7765 86.4557L92.4132 86.4604L82.726 75.0416L91.8217 65.6212L89.2749 65.6166L76.9375 78.1868L76.9603 65.5946L74.7431 65.5907L74.7054 86.4288L76.9226 86.4327L76.9325 80.9553L81.225 76.6465L89.7765 86.4557Z" fill="#FFC0E9"/>
<path d="M74.4419 41.7316L75.1184 40.578H77.4382V86.422H74.4419V41.7316Z" fill="#FFC0E9"/>
<path d="M74.4419 89.3988H77.4382V115H74.4419V89.3988Z" fill="#FFC0E9"/>
<path d="M74.4419 12H77.4382V37.6012H74.4419V12Z" fill="#FFC0E9"/>
<path d="M105.004 12H108V115H105.004V12Z" fill="#FFC0E9"/>
<path d="M74.4419 115V112.023H108V115H74.4419Z" fill="#FFC0E9"/>
<path d="M74.4419 14.9769V12L108 12V14.9769L74.4419 14.9769Z" fill="#FFC0E9"/>
<path d="M44.6557 76.3423C44.2194 76.3423 43.8139 76.27 43.4392 76.1255C43.07 75.9755 42.7484 75.7671 42.4744 75.5004C42.2003 75.2337 41.9878 74.9225 41.8368 74.5668C41.6858 74.2056 41.6103 73.8111 41.6103 73.3832C41.6103 72.9554 41.6858 72.5636 41.8368 72.208C41.9878 71.8468 42.2003 71.5328 42.4744 71.2661C42.754 70.9994 43.0784 70.7938 43.4476 70.6493C43.8167 70.4992 44.2194 70.4242 44.6557 70.4242C45.0695 70.4242 45.4555 70.4909 45.8134 70.6243C46.177 70.7576 46.4874 70.9605 46.7447 71.2327L46.4762 71.5078C46.2245 71.2633 45.9449 71.0883 45.6372 70.9827C45.3352 70.8715 45.0136 70.816 44.6724 70.816C44.2977 70.816 43.9481 70.8799 43.6238 71.0077C43.305 71.1355 43.0253 71.3161 42.7848 71.5495C42.5499 71.7829 42.3653 72.0552 42.2311 72.3663C42.1025 72.6775 42.0381 73.0165 42.0381 73.3832C42.0381 73.75 42.1025 74.089 42.2311 74.4001C42.3653 74.7113 42.5499 74.9836 42.7848 75.217C43.0253 75.4504 43.305 75.631 43.6238 75.7588C43.9481 75.8866 44.2977 75.9505 44.6724 75.9505C45.0136 75.9505 45.3352 75.8977 45.6372 75.7921C45.9449 75.681 46.2245 75.5004 46.4762 75.2503L46.7447 75.5254C46.4874 75.7977 46.177 76.0033 45.8134 76.1422C45.4555 76.2756 45.0695 76.3423 44.6557 76.3423Z" fill="#FFC0E9"/>
<path d="M48.5972 76.3006V70.4659H50.703C51.1952 70.4659 51.6175 70.5437 51.9698 70.6993C52.3222 70.8549 52.5934 71.0799 52.7836 71.3744C52.9738 71.6634 53.0688 72.0163 53.0688 72.433C53.0688 72.8387 52.9738 73.1887 52.7836 73.4833C52.5934 73.7722 52.3222 73.9973 51.9698 74.1584C51.6175 74.314 51.1952 74.3918 50.703 74.3918H48.8321L49.0251 74.1918V76.3006H48.5972ZM52.6745 76.3006L51.1476 74.1834H51.6342L53.1611 76.3006H52.6745ZM49.0251 74.2168L48.8321 74.0167H50.703C51.335 74.0167 51.8132 73.8778 52.1376 73.6C52.4676 73.3221 52.6326 72.9331 52.6326 72.433C52.6326 71.9273 52.4676 71.5384 52.1376 71.2661C51.8132 70.9882 51.335 70.8493 50.703 70.8493H48.8321L49.0251 70.6409V74.2168Z" fill="#FFC0E9"/>
<path d="M54.0733 76.3006L56.7747 70.4659H57.2026L59.904 76.3006H59.4426L56.8922 70.7326H57.0767L54.5347 76.3006H54.0733ZM55.0633 74.6585L55.2059 74.3001H58.7211L58.8637 74.6585H55.0633Z" fill="#FFC0E9"/>
<path d="M61.7671 73.3416H64.9468V73.725H61.7671V73.3416ZM61.8175 76.3006H61.3896V70.4659H65.3159V70.8493H61.8175V76.3006Z" fill="#FFC0E9"/>
<path d="M68.2669 76.3006V70.8493H66.1527V70.4659H70.8089V70.8493H68.6947V76.3006H68.2669Z" fill="#FFC0E9"/>
<path d="M21.0454 86.4636C20.6091 86.4636 20.2036 86.3914 19.8289 86.2469C19.4598 86.0969 19.1382 85.8885 18.8641 85.6218C18.5901 85.3551 18.3775 85.0439 18.2265 84.6882C18.0755 84.327 18 83.9325 18 83.5046C18 83.0767 18.0755 82.685 18.2265 82.3294C18.3775 81.9682 18.5901 81.6542 18.8641 81.3875C19.1438 81.1207 19.4682 80.9151 19.8373 80.7707C20.2064 80.6206 20.6091 80.5456 21.0454 80.5456C21.4593 80.5456 21.8452 80.6123 22.2031 80.7456C22.5667 80.879 22.8771 81.0818 23.1344 81.3541L22.8659 81.6292C22.6142 81.3847 22.3346 81.2096 22.027 81.1041C21.7249 80.9929 21.4033 80.9374 21.0622 80.9374C20.6874 80.9374 20.3379 81.0013 20.0135 81.1291C19.6947 81.2569 19.415 81.4375 19.1745 81.6709C18.9396 81.9043 18.7551 82.1765 18.6208 82.4877C18.4922 82.7989 18.4279 83.1379 18.4279 83.5046C18.4279 83.8714 18.4922 84.2103 18.6208 84.5215C18.7551 84.8327 18.9396 85.105 19.1745 85.3384C19.415 85.5718 19.6947 85.7524 20.0135 85.8802C20.3379 86.008 20.6874 86.0719 21.0622 86.0719C21.4033 86.0719 21.7249 86.0191 22.027 85.9135C22.3346 85.8024 22.6142 85.6218 22.8659 85.3717L23.1344 85.6468C22.8771 85.9191 22.5667 86.1247 22.2031 86.2636C21.8452 86.397 21.4593 86.4636 21.0454 86.4636Z" fill="#FFC0E9"/>
<path d="M27.3558 86.4636C26.9195 86.4636 26.514 86.3914 26.1393 86.2469C25.7701 86.0969 25.4457 85.8885 25.1661 85.6218C24.892 85.3495 24.6795 85.0355 24.5285 84.6799C24.3775 84.3187 24.302 83.9269 24.302 83.5046C24.302 83.0823 24.3775 82.6933 24.5285 82.3377C24.6795 81.9765 24.892 81.6625 25.1661 81.3958C25.4457 81.1235 25.7701 80.9151 26.1393 80.7707C26.514 80.6206 26.9195 80.5456 27.3558 80.5456C27.792 80.5456 28.1947 80.6206 28.5638 80.7707C28.9386 80.9151 29.263 81.1207 29.537 81.3875C29.8111 81.6542 30.0236 81.9682 30.1746 82.3294C30.3312 82.685 30.4095 83.0767 30.4095 83.5046C30.4095 83.9325 30.3312 84.327 30.1746 84.6882C30.0236 85.0439 29.8111 85.3551 29.537 85.6218C29.263 85.8885 28.9386 86.0969 28.5638 86.2469C28.1947 86.3914 27.792 86.4636 27.3558 86.4636ZM27.3558 86.0719C27.7305 86.0719 28.0773 86.008 28.3961 85.8802C28.7149 85.7524 28.9917 85.5718 29.2266 85.3384C29.4615 85.105 29.6433 84.8327 29.7719 84.5215C29.9062 84.2103 29.9733 83.8714 29.9733 83.5046C29.9733 83.1323 29.9062 82.7933 29.7719 82.4877C29.6433 82.1765 29.4615 81.9043 29.2266 81.6709C28.9917 81.4375 28.7149 81.2569 28.3961 81.1291C28.0773 81.0013 27.7305 80.9374 27.3558 80.9374C26.981 80.9374 26.6343 81.0013 26.3155 81.1291C25.9967 81.2569 25.717 81.4375 25.4765 81.6709C25.2416 81.9043 25.057 82.1765 24.9228 82.4877C24.7942 82.7933 24.7298 83.1323 24.7298 83.5046C24.7298 83.8714 24.7942 84.2103 24.9228 84.5215C25.057 84.8327 25.2416 85.105 25.4765 85.3384C25.717 85.5718 25.9967 85.7524 26.3155 85.8802C26.6343 86.008 26.981 86.0719 27.3558 86.0719Z" fill="#FFC0E9"/>
<path d="M33.8567 86.4636C33.4205 86.4636 33.0066 86.3914 32.6151 86.2469C32.2291 86.0969 31.9299 85.9052 31.7174 85.6718L31.9103 85.3551C32.1117 85.5607 32.3858 85.7357 32.7325 85.8802C33.0849 86.0191 33.4568 86.0886 33.8483 86.0886C34.2398 86.0886 34.5586 86.0385 34.8047 85.9385C35.0564 85.8329 35.241 85.694 35.3584 85.5218C35.4815 85.3495 35.543 85.1578 35.543 84.9466C35.543 84.6966 35.4759 84.4965 35.3417 84.3465C35.2074 84.1965 35.0312 84.077 34.8131 83.9881C34.595 83.8992 34.3573 83.8241 34.1 83.763C33.8427 83.7019 33.5827 83.638 33.3198 83.5713C33.0569 83.4991 32.8164 83.4074 32.5983 83.2962C32.3802 83.1851 32.204 83.0351 32.0697 82.8461C31.9411 82.6517 31.8768 82.4016 31.8768 82.096C31.8768 81.8181 31.9495 81.5625 32.0949 81.3291C32.2403 81.0957 32.4669 80.9068 32.7745 80.7623C33.0821 80.6178 33.4764 80.5456 33.9574 80.5456C34.2818 80.5456 34.6006 80.5928 34.9138 80.6873C35.2326 80.7818 35.5039 80.9096 35.7276 81.0707L35.5682 81.4125C35.3221 81.2458 35.0564 81.1235 34.7712 81.0457C34.4915 80.9624 34.2203 80.9207 33.9574 80.9207C33.5827 80.9207 33.2722 80.9735 33.0262 81.0791C32.7801 81.1846 32.5983 81.3263 32.4808 81.5042C32.3634 81.6764 32.3047 81.8709 32.3047 82.0876C32.3047 82.3377 32.369 82.5377 32.4976 82.6878C32.6318 82.8378 32.808 82.9573 33.0262 83.0462C33.2443 83.1351 33.4848 83.2101 33.7477 83.2712C34.0105 83.3324 34.2706 83.399 34.5279 83.4713C34.7852 83.538 35.0229 83.6269 35.241 83.738C35.4591 83.8491 35.6353 83.9992 35.7695 84.1881C35.9038 84.377 35.9709 84.6216 35.9709 84.9216C35.9709 85.1939 35.8954 85.4495 35.7444 85.6885C35.5933 85.9218 35.3612 86.1108 35.048 86.2553C34.7404 86.3942 34.3433 86.4636 33.8567 86.4636Z" fill="#FFC0E9"/>
<path d="M37.8449 86.422V80.5873H38.2056L40.9322 85.2634H40.7393L43.4575 80.5873H43.8098L43.8182 86.422H43.3987L43.3904 81.2291H43.5078L40.9322 85.6468H40.7225L38.1385 81.2291H38.2644V86.422H37.8449Z" fill="#FFC0E9"/>
<path d="M46.6627 83.2712H49.8424V83.6463H46.6627V83.2712ZM46.7131 86.0385H50.3373V86.422H46.2852V80.5873H50.2115V80.9707H46.7131V86.0385Z" fill="#FFC0E9"/>
<path d="M53.441 86.422V80.9707H51.3268V80.5873H55.983V80.9707H53.8689V86.422H53.441Z" fill="#FFC0E9"/>
<path d="M57.4636 86.422V80.5873H57.8914V86.422H57.4636Z" fill="#FFC0E9"/>
<path d="M62.8406 86.4636C62.4043 86.4636 61.9989 86.3914 61.6241 86.2469C61.255 86.0969 60.9334 85.8885 60.6593 85.6218C60.3853 85.3551 60.1727 85.0439 60.0217 84.6882C59.8707 84.327 59.7952 83.9325 59.7952 83.5046C59.7952 83.0767 59.8707 82.685 60.0217 82.3294C60.1727 81.9682 60.3853 81.6542 60.6593 81.3875C60.939 81.1207 61.2634 80.9151 61.6325 80.7707C62.0017 80.6206 62.4043 80.5456 62.8406 80.5456C63.2545 80.5456 63.6404 80.6123 63.9984 80.7456C64.3619 80.879 64.6723 81.0818 64.9296 81.3541L64.6611 81.6292C64.4094 81.3847 64.1298 81.2096 63.8222 81.1041C63.5202 80.9929 63.1986 80.9374 62.8574 80.9374C62.4826 80.9374 62.1331 81.0013 61.8087 81.1291C61.4899 81.2569 61.2102 81.4375 60.9697 81.6709C60.7348 81.9043 60.5503 82.1765 60.416 82.4877C60.2874 82.7989 60.2231 83.1379 60.2231 83.5046C60.2231 83.8714 60.2874 84.2103 60.416 84.5215C60.5503 84.8327 60.7348 85.105 60.9697 85.3384C61.2102 85.5718 61.4899 85.7524 61.8087 85.8802C62.1331 86.008 62.4826 86.0719 62.8574 86.0719C63.1986 86.0719 63.5202 86.0191 63.8222 85.9135C64.1298 85.8024 64.4094 85.6218 64.6611 85.3717L64.9296 85.6468C64.6723 85.9191 64.3619 86.1247 63.9984 86.2636C63.6404 86.397 63.2545 86.4636 62.8406 86.4636Z" fill="#FFC0E9"/>
<path d="M68.3013 86.4636C67.865 86.4636 67.4511 86.3914 67.0596 86.2469C66.6737 86.0969 66.3745 85.9052 66.1619 85.6718L66.3549 85.3551C66.5562 85.5607 66.8303 85.7357 67.1771 85.8802C67.5294 86.0191 67.9014 86.0886 68.2929 86.0886C68.6844 86.0886 69.0032 86.0385 69.2493 85.9385C69.501 85.8329 69.6855 85.694 69.803 85.5218C69.926 85.3495 69.9876 85.1578 69.9876 84.9466C69.9876 84.6966 69.9204 84.4965 69.7862 84.3465C69.652 84.1965 69.4758 84.077 69.2577 83.9881C69.0395 83.8992 68.8018 83.8241 68.5446 83.763C68.2873 83.7019 68.0272 83.638 67.7643 83.5713C67.5015 83.4991 67.261 83.4074 67.0428 83.2962C66.8247 83.1851 66.6485 83.0351 66.5143 82.8461C66.3857 82.6517 66.3213 82.4016 66.3213 82.096C66.3213 81.8181 66.394 81.5625 66.5395 81.3291C66.6849 81.0957 66.9114 80.9068 67.219 80.7623C67.5266 80.6178 67.9209 80.5456 68.4019 80.5456C68.7263 80.5456 69.0451 80.5928 69.3583 80.6873C69.6771 80.7818 69.9484 80.9096 70.1721 81.0707L70.0127 81.4125C69.7666 81.2458 69.501 81.1235 69.2157 81.0457C68.9361 80.9624 68.6648 80.9207 68.4019 80.9207C68.0272 80.9207 67.7168 80.9735 67.4707 81.0791C67.2246 81.1846 67.0428 81.3263 66.9254 81.5042C66.8079 81.6764 66.7492 81.8709 66.7492 82.0876C66.7492 82.3377 66.8135 82.5377 66.9422 82.6878C67.0764 82.8378 67.2526 82.9573 67.4707 83.0462C67.6888 83.1351 67.9293 83.2101 68.1922 83.2712C68.4551 83.3324 68.7151 83.399 68.9724 83.4713C69.2297 83.538 69.4674 83.6269 69.6855 83.738C69.9037 83.8491 70.0798 83.9992 70.2141 84.1881C70.3483 84.377 70.4154 84.6216 70.4154 84.9216C70.4154 85.1939 70.3399 85.4495 70.1889 85.6885C70.0379 85.9218 69.8058 86.1108 69.4926 86.2553C69.185 86.3942 68.7879 86.4636 68.3013 86.4636Z" fill="#FFC0E9"/>
</svg>
